<?xml version="1.0" encoding="UTF-8"?>
<!DOCTYPE svg PUBLIC "-//W3C//DTD SVG 1.1//EN" "http://www.w3.org/Graphics/SVG/1.1/DTD/svg11.dtd">
<svg xmlns="http://www.w3.org/2000/svg" version="1.1" width="660px" height="800px" style="shape-rendering:geometricPrecision; text-rendering:geometricPrecision; image-rendering:optimizeQuality; fill-rule:evenodd; clip-rule:evenodd" xmlns:xlink="http://www.w3.org/1999/xlink">
<g><path style="opacity:0.004" fill="#964037" d="M 511.5,66.5 C 512.833,67.1667 512.833,67.1667 511.5,66.5 Z"/></g>
<g><path style="opacity:1" fill="#f54034" d="M 454.5,131.5 C 474.508,166.379 481.342,203.712 475,243.5C 470.988,261.041 464.155,277.374 454.5,292.5C 411.112,292.177 379.112,310.844 358.5,348.5C 338.167,348.5 317.833,348.5 297.5,348.5C 283.01,347.504 268.343,347.171 253.5,347.5C 254.537,345.262 254.703,342.929 254,340.5C 230.778,327.894 211.444,310.894 196,289.5C 173.993,251.445 169.659,211.445 183,169.5C 192.143,141.342 207.643,117.509 229.5,98C 253.097,80.1302 279.763,70.1302 309.5,68C 370.756,60.6632 419.089,81.8298 454.5,131.5 Z"/></g>
<g><path style="opacity:0.008" fill="#984139" d="M 139.5,79.5 C 140.833,80.1667 140.833,80.1667 139.5,79.5 Z"/></g>
<g><path style="opacity:0.006" fill="#964038" d="M 139.5,81.5 C 140.525,81.8966 140.692,82.5632 140,83.5C 139.536,82.9056 139.369,82.2389 139.5,81.5 Z"/></g>
<g><path style="opacity:0.012" fill="#993d38" d="M 511.5,84.5 C 512.833,85.1667 512.833,85.1667 511.5,84.5 Z"/></g>
<g><path style="opacity:0.004" fill="#983c34" d="M 144.5,103.5 C 145.833,104.167 145.833,104.167 144.5,103.5 Z"/></g>
<g><path style="opacity:0.004" fill="#983933" d="M 147.5,110.5 C 148.833,111.167 148.833,111.167 147.5,110.5 Z"/></g>
<g><path style="opacity:0.004" fill="#98352b" d="M 153.5,119.5 C 152.833,120.167 152.833,120.167 153.5,119.5 Z"/></g>
<g><path style="opacity:0.004" fill="#934540" d="M 99.5,125.5 C 100.833,126.167 100.833,126.167 99.5,125.5 Z"/></g>
<g><path style="opacity:0.004" fill="#97453e" d="M 554.5,125.5 C 555.833,126.167 555.833,126.167 554.5,125.5 Z"/></g>
<g><path style="opacity:0.004" fill="#9a2f27" d="M 158.5,126.5 C 157.833,127.167 157.833,127.167 158.5,126.5 Z"/></g>
<g><path style="opacity:0.004" fill="#9c302a" d="M 493.5,126.5 C 494.833,127.167 494.833,127.167 493.5,126.5 Z"/></g>
<g><path style="opacity:0.016" fill="#953c35" d="M 545.5,126.5 C 546.833,127.167 546.833,127.167 545.5,126.5 Z"/></g>
<g><path style="opacity:1" fill="#681310" d="M 493.5,126.5 C 487.866,132.304 482.366,138.304 477,144.5C 476.541,148.787 477.874,152.454 481,155.5C 504.513,138.44 530.68,129.607 559.5,129C 560.743,130.154 561.743,131.488 562.5,133C 557.599,150.767 552.766,168.6 548,186.5C 542.465,209.082 531.631,228.582 515.5,245C 510.81,248.677 505.81,251.844 500.5,254.5C 499.192,253.768 497.858,252.934 496.5,252C 497.833,251 497.833,250 496.5,249C 497.449,248.383 498.282,248.549 499,249.5C 499.92,246.899 500.587,244.232 501,241.5C 507.018,237.981 511.852,233.314 515.5,227.5C 531.037,201.229 541.037,172.896 545.5,142.5C 526.71,145.423 509.71,152.423 494.5,163.5C 493.811,162.226 492.977,162.226 492,163.5C 491.544,162.256 492.044,161.423 493.5,161C 492.584,160.626 491.75,160.126 491,159.5C 487.211,162.985 482.711,164.485 477.5,164C 478.872,163.369 480.205,162.702 481.5,162C 481.122,160.365 480.456,158.865 479.5,157.5C 477.694,158.859 476.194,158.525 475,156.5C 474,157.833 473,159.167 472,160.5C 471.026,158.122 470.359,158.456 470,161.5C 466.11,150.717 460.943,140.717 454.5,131.5C 419.089,81.8298 370.756,60.6632 309.5,68C 279.763,70.1302 253.097,80.1302 229.5,98C 207.643,117.509 192.143,141.342 183,169.5C 169.659,211.445 173.993,251.445 196,289.5C 211.444,310.894 230.778,327.894 254,340.5C 254.703,342.929 254.537,345.262 253.5,347.5C 244.5,347.5 235.5,347.5 226.5,347.5C 227.537,345.262 227.703,342.929 227,340.5C 224.269,338.255 221.436,336.255 218.5,334.5C 200.086,319.254 185.586,300.921 175,279.5C 172.846,273.883 170.846,268.216 169,262.5C 167.786,260.951 166.286,259.785 164.5,259C 152.856,255.831 142.522,250.331 133.5,242.5C 124.947,233.744 118.113,223.744 113,212.5C 103.225,186.895 95.3914,160.729 89.5,134C 90.1043,131.532 91.4376,129.532 93.5,128C 119.465,129.323 143.465,136.823 165.5,150.5C 167.513,152.497 169.846,154.164 172.5,155.5C 174.564,152.539 176.231,149.372 177.5,146C 170.937,139.605 164.603,133.105 158.5,126.5C 157.189,123.865 155.522,121.531 153.5,119.5C 139.702,94.3539 137.869,68.3539 148,41.5C 154.681,26.8249 164.848,15.3249 178.5,7C 184.007,5.10515 187.674,6.77182 189.5,12C 184.377,31.4973 186.877,50.3306 197,68.5C 203.05,75.2163 210.216,80.383 218.5,84C 220.5,84.6667 222.5,84.6667 224.5,84C 256.2,62.443 291.367,51.943 330,52.5C 365.357,52.3737 397.523,62.2071 426.5,82C 428.588,83.0296 430.755,83.8629 433,84.5C 445.233,79.935 453.899,71.6017 459,59.5C 464.727,44.531 465.894,29.1977 462.5,13.5C 462.946,8.88568 465.446,6.55235 470,6.5C 473.553,6.6835 476.719,7.85017 479.5,10C 506.373,32.9529 515.873,61.7863 508,96.5C 505.017,107.464 500.184,117.464 493.5,126.5 Z"/></g>
<g><path style="opacity:0.004" fill="#99312f" d="M 449.5,70.5 C 450.833,71.1667 450.833,71.1667 449.5,70.5 Z"/></g>
<g><path style="opacity:0.008" fill="#9c352f" d="M 411.5,70.5 C 412.833,71.1667 412.833,71.1667 411.5,70.5 Z"/></g>
<g><path style="opacity:0.008" fill="#993530" d="M 241.5,70.5 C 242.833,71.1667 242.833,71.1667 241.5,70.5 Z"/></g>
<g><path style="opacity:0.012" fill="#98443a" d="M 283.5,55.5 C 284.833,56.1667 284.833,56.1667 283.5,55.5 Z"/></g>
<g><path style="opacity:0.004" fill="#9a4138" d="M 192.5,55.5 C 193.833,56.1667 193.833,56.1667 192.5,55.5 Z"/></g>
<g><path style="opacity:0.004" fill="#9c4441" d="M 361.5,54.5 C 361.897,53.475 362.563,53.3083 363.5,54C 362.906,54.4643 362.239,54.631 361.5,54.5 Z"/></g>
<g><path style="opacity:0.004" fill="#9c3e38" d="M 191.5,52.5 C 192.833,53.1667 192.833,53.1667 191.5,52.5 Z"/></g>
<g><path style="opacity:0.004" fill="#9a3c31" d="M 460.5,47.5 C 461.833,48.1667 461.833,48.1667 460.5,47.5 Z"/></g>
<g><path style="opacity:0.004" fill="#9b4038" d="M 188.5,39.5 C 189.833,40.1667 189.833,40.1667 188.5,39.5 Z"/></g>
<g><path style="opacity:1" fill="#f54034" d="M 477.5,26.5 C 500.016,51.9855 503.516,79.9855 488,110.5C 483.107,118.564 476.94,125.564 469.5,131.5C 461.679,119.001 452.679,107.335 442.5,96.5C 467.438,79.9571 479.105,56.6237 477.5,26.5 Z"/></g>
<g><path style="opacity:1" fill="#f44034" d="M 172.5,27.5 C 174.077,36.9236 175.91,46.5902 178,56.5C 182.795,74.7901 193.629,88.1234 210.5,96.5C 200.603,107.958 191.936,120.291 184.5,133.5C 161.923,114.269 152.423,89.9353 156,60.5C 159.418,48.3306 164.918,37.3306 172.5,27.5 Z"/></g>
<g><path style="opacity:0.008" fill="#9a4039" d="M 462.5,29.5 C 463.833,30.1667 463.833,30.1667 462.5,29.5 Z"/></g>
<g><path style="opacity:0.004" fill="#98473e" d="M 460.5,13.5 C 461.833,14.1667 461.833,14.1667 460.5,13.5 Z"/></g>
<g><path style="opacity:0.008" fill="#98463e" d="M 460.5,11.5 C 461.833,12.1667 461.833,12.1667 460.5,11.5 Z"/></g>
<g><path style="opacity:0.004" fill="#9b332e" d="M 133.5,133.5 C 134.833,134.167 134.833,134.167 133.5,133.5 Z"/></g>
<g><path style="opacity:0.008" fill="#8e4741" d="M 89.5,140.5 C 90.8333,141.167 90.8333,141.167 89.5,140.5 Z"/></g>
<g><path style="opacity:0.004" fill="#93413a" d="M 560.5,141.5 C 561.833,142.167 561.833,142.167 560.5,141.5 Z"/></g>
<g><path style="opacity:0.004" fill="#9c2b27" d="M 174.5,145.5 C 175.833,146.167 175.833,146.167 174.5,145.5 Z"/></g>
<g><path style="opacity:1" fill="#f54034" d="M 105.5,143.5 C 129.954,145.552 151.287,155.052 169.5,172C 166.847,179.791 164.513,187.624 162.5,195.5C 155.544,188.707 147.877,182.874 139.5,178C 133.641,177.87 131.474,180.703 133,186.5C 143.589,193.753 152.922,202.42 161,212.5C 162.982,223.071 164.482,233.738 165.5,244.5C 155.052,242.522 146.219,237.522 139,229.5C 132.911,220.995 127.578,211.995 123,202.5C 116.195,182.938 110.362,163.271 105.5,143.5 Z"/></g>
<g><path style="opacity:1" fill="#f54034" d="M 515.5,227.5 C 510.957,232.209 505.957,236.375 500.5,240C 496.797,242.354 492.797,243.854 488.5,244.5C 489.13,234.513 489.63,224.513 490,214.5C 496.544,204.955 504.711,197.122 514.5,191C 520.113,187.626 520.779,183.626 516.5,179C 514.167,178.333 511.833,178.333 509.5,179C 502.688,184.311 496.021,189.811 489.5,195.5C 488.024,187.952 486.357,180.452 484.5,173C 487.033,168.967 490.366,165.8 494.5,163.5C 509.71,152.423 526.71,145.423 545.5,142.5C 541.037,172.896 531.037,201.229 515.5,227.5 Z"/></g>
<g><path style="opacity:0.016" fill="#92443d" d="M 91.5,148.5 C 92.8333,149.167 92.8333,149.167 91.5,148.5 Z"/></g>
<g><path style="opacity:0.004" fill="#9e2b26" d="M 165.5,149.5 C 166.833,150.167 166.833,150.167 165.5,149.5 Z"/></g>
<g><path style="opacity:0.008" fill="#953f39" d="M 555.5,163.5 C 556.833,164.167 556.833,164.167 555.5,163.5 Z"/></g>
<g><path style="opacity:1" fill="#64110f" d="M 416.5,156.5 C 423.798,156.638 426.132,160.138 423.5,167C 407.158,173.338 391.491,181.005 376.5,190C 358.08,196.234 349.58,189.734 351,170.5C 354.092,163.93 358.426,162.93 364,167.5C 364.296,170.433 363.796,173.266 362.5,176C 362.543,178.376 363.709,179.876 366,180.5C 383.016,172.572 399.849,164.572 416.5,156.5 Z"/></g>
<g><path style="opacity:1" fill="#64110f" d="M 227.5,156.5 C 232.954,157.483 238.287,158.983 243.5,161C 254.452,166.143 265.119,171.809 275.5,178C 279.509,180.384 283.676,180.884 288,179.5C 287.96,175.777 287.627,172.111 287,168.5C 292.674,163.786 297.007,164.786 300,171.5C 301.89,189.271 294.056,196.104 276.5,192C 260.626,182.397 243.959,174.397 226.5,168C 222.344,163.787 222.677,159.954 227.5,156.5 Z"/></g>
<g><path style="opacity:0.012" fill="#95423c" d="M 97.5,172.5 C 98.8333,173.167 98.8333,173.167 97.5,172.5 Z"/></g>
<g><path style="opacity:0.004" fill="#96443b" d="M 98.5,177.5 C 99.8333,178.167 99.8333,178.167 98.5,177.5 Z"/></g>
<g><path style="opacity:0.004" fill="#96453c" d="M 99.5,179.5 C 100.833,180.167 100.833,180.167 99.5,179.5 Z"/></g>
<g><path style="opacity:0.008" fill="#984138" d="M 549.5,184.5 C 550.833,185.167 550.833,185.167 549.5,184.5 Z"/></g>
<g><path style="opacity:1" fill="#66120f" d="M 255.5,192.5 C 274.307,192.803 281.807,202.136 278,220.5C 272.36,229.895 264.194,233.062 253.5,230C 242.756,224.111 239.256,215.278 243,203.5C 246.124,198.536 250.291,194.87 255.5,192.5 Z"/></g>
<g><path style="opacity:1" fill="#651210" d="M 383.5,192.5 C 401.655,191.822 409.488,200.489 407,218.5C 400.241,230.985 390.407,234.152 377.5,228C 366.895,217.302 366.895,206.635 377.5,196C 379.432,194.541 381.432,193.375 383.5,192.5 Z"/></g>
<g><path style="opacity:0.012" fill="#95463d" d="M 105.5,197.5 C 106.833,198.167 106.833,198.167 105.5,197.5 Z"/></g>
<g><path style="opacity:0.016" fill="#96453e" d="M 106.5,201.5 C 107.833,202.167 107.833,202.167 106.5,201.5 Z"/></g>
<g><path style="opacity:0.02" fill="#96463f" d="M 107.5,203.5 C 108.833,204.167 108.833,204.167 107.5,203.5 Z"/></g>
<g><path style="opacity:0.004" fill="#94423c" d="M 133.5,242.5 C 132.833,243.167 132.833,243.167 133.5,242.5 Z"/></g>
<g><path style="opacity:1" fill="#65120f" d="M 454.5,131.5 C 460.943,140.717 466.11,150.717 470,161.5C 470.359,158.456 471.026,158.122 472,160.5C 473,159.167 474,157.833 475,156.5C 476.194,158.525 477.694,158.859 479.5,157.5C 480.456,158.865 481.122,160.365 481.5,162C 480.205,162.702 478.872,163.369 477.5,164C 482.711,164.485 487.211,162.985 491,159.5C 491.75,160.126 492.584,160.626 493.5,161C 492.044,161.423 491.544,162.256 492,163.5C 492.977,162.226 493.811,162.226 494.5,163.5C 490.366,165.8 487.033,168.967 484.5,173C 486.357,180.452 488.024,187.952 489.5,195.5C 496.021,189.811 502.688,184.311 509.5,179C 511.833,178.333 514.167,178.333 516.5,179C 520.779,183.626 520.113,187.626 514.5,191C 504.711,197.122 496.544,204.955 490,214.5C 489.63,224.513 489.13,234.513 488.5,244.5C 492.797,243.854 496.797,242.354 500.5,240C 505.957,236.375 510.957,232.209 515.5,227.5C 511.852,233.314 507.018,237.981 501,241.5C 500.587,244.232 499.92,246.899 499,249.5C 498.282,248.549 497.449,248.383 496.5,249C 497.833,250 497.833,251 496.5,252C 497.858,252.934 499.192,253.768 500.5,254.5C 495.476,256.721 490.31,258.721 485,260.5C 480.783,272.102 475.616,283.268 469.5,294C 518.355,309.815 544.021,343.149 546.5,394C 544.823,414.702 537.823,433.369 525.5,450C 527.388,458.374 532.055,464.541 539.5,468.5C 539.141,470.485 538.308,471.151 537,470.5C 535.795,471.071 534.628,471.738 533.5,472.5C 534.629,474.529 534.129,474.863 532,473.5C 531.208,475.587 530.041,477.421 528.5,479C 529.308,479.308 529.975,479.808 530.5,480.5C 530.154,481.696 529.654,481.696 529,480.5C 528.312,481.332 528.479,481.998 529.5,482.5C 531.409,483.348 533.409,483.682 535.5,483.5C 535.584,479.225 537.084,478.558 540,481.5C 543.919,480.054 547.752,480.22 551.5,482C 551.272,482.399 550.938,482.565 550.5,482.5C 545.686,481.133 541.019,481.633 536.5,484C 529.275,486.193 523.108,490.026 518,495.5C 517.191,500.363 517.858,505.03 520,509.5C 521.406,512.409 523.572,514.409 526.5,515.5C 527.609,516.29 528.942,516.79 530.5,517C 526.048,517.86 522.548,516.36 520,512.5C 517.327,507.481 515.66,502.148 515,496.5C 514.74,498.618 513.74,500.284 512,501.5C 511.333,500.833 510.667,500.167 510,499.5C 508.692,501.134 507.858,502.968 507.5,505C 508.421,509.002 509.754,512.835 511.5,516.5C 508.095,512.145 505.928,507.145 505,501.5C 498.071,494.594 491.738,494.927 486,502.5C 484.807,512.201 486.807,521.201 492,529.5C 496.735,536.625 502.902,538.292 510.5,534.5C 509.316,535.688 509.316,536.855 510.5,538C 509.376,538.249 508.376,538.749 507.5,539.5C 508.242,541.35 509.242,542.016 510.5,541.5C 508.02,542.415 507.353,543.915 508.5,546C 507.167,546.667 505.833,547.333 504.5,548C 507.687,548.108 510.687,547.275 513.5,545.5C 514.107,545.624 514.44,545.957 514.5,546.5C 505.262,551.266 495.429,553.266 485,552.5C 480.5,552.333 476,552.167 471.5,552C 466.534,550.641 461.534,549.474 456.5,548.5C 455.926,554.484 455.593,560.484 455.5,566.5C 453.991,567.859 453.324,567.359 453.5,565C 454.536,559.861 454.703,554.695 454,549.5C 453.667,550.5 453.333,551.5 453,552.5C 452.535,551.069 451.701,549.903 450.5,549C 451.167,548.667 451.833,548.333 452.5,548C 451.216,547.316 450.049,547.483 449,548.5C 448.383,547.551 448.549,546.718 449.5,546C 448.551,545.383 447.718,545.549 447,546.5C 446.333,545.167 446.333,543.833 447,542.5C 447.317,544.301 447.984,544.634 449,543.5C 449.333,542.167 449.667,540.833 450,539.5C 450.914,540.654 451.747,540.487 452.5,539C 449.258,538.717 448.924,537.883 451.5,536.5C 450.41,534.997 449.243,534.664 448,535.5C 447.667,534.833 447.333,534.167 447,533.5C 446.147,537.469 445.481,541.469 445,545.5C 444.506,543.866 444.34,542.199 444.5,540.5C 446.365,522.186 448.031,503.853 449.5,485.5C 432.033,485.81 415.7,481.81 400.5,473.5C 396.255,471.904 392.255,469.904 388.5,467.5C 377.742,458.575 368.575,448.242 361,436.5C 353.839,422.538 349.673,407.871 348.5,392.5C 348.5,388.833 348.5,385.167 348.5,381.5C 349.338,381.158 349.672,380.492 349.5,379.5C 349.5,377.167 349.5,374.833 349.5,372.5C 350.992,368.736 351.992,364.736 352.5,360.5C 354.065,358.491 355.065,356.157 355.5,353.5C 356.248,351.668 357.248,350.001 358.5,348.5C 379.112,310.844 411.112,292.177 454.5,292.5C 464.155,277.374 470.988,261.041 475,243.5C 481.342,203.712 474.508,166.379 454.5,131.5 Z"/></g>
<g><path style="opacity:0.004" fill="#943b32" d="M 595.5,257.5 C 596.833,258.167 596.833,258.167 595.5,257.5 Z"/></g>
<g><path style="opacity:0.004" fill="#982e24" d="M 490.5,259.5 C 491.833,260.167 491.833,260.167 490.5,259.5 Z"/></g>
<g><path style="opacity:1" fill="#63110f" d="M 313.5,250.5 C 340.665,248.052 362.831,257.386 380,278.5C 380.494,285.324 377.328,287.824 370.5,286C 360.926,275.377 349.259,268.044 335.5,264C 314.063,261.058 296.73,268.058 283.5,285C 276.388,287.554 272.888,285.054 273,277.5C 283.627,264.109 297.127,255.109 313.5,250.5 Z"/></g>
<g><path style="opacity:0.004" fill="#943c35" d="M 170.5,273.5 C 171.833,274.167 171.833,274.167 170.5,273.5 Z"/></g>
<g><path style="opacity:0.004" fill="#963d35" d="M 171.5,275.5 C 172.833,276.167 172.833,276.167 171.5,275.5 Z"/></g>
<g><path style="opacity:0.012" fill="#93302a" d="M 479.5,276.5 C 480.833,277.167 480.833,277.167 479.5,276.5 Z"/></g>
<g><path style="opacity:0.004" fill="#68666a" d="M 107.5,301.5 C 108.833,302.167 108.833,302.167 107.5,301.5 Z"/></g>
<g><path style="opacity:0.008" fill="#6a6667" d="M 110.5,301.5 C 111.833,302.167 111.833,302.167 110.5,301.5 Z"/></g>
<g><path style="opacity:0.016" fill="#686467" d="M 115.5,301.5 C 116.833,302.167 116.833,302.167 115.5,301.5 Z"/></g>
<g><path style="opacity:0.004" fill="#696265" d="M 126.5,301.5 C 127.833,302.167 127.833,302.167 126.5,301.5 Z"/></g>
<g><path style="opacity:0.004" fill="#686065" d="M 128.5,301.5 C 129.833,302.167 129.833,302.167 128.5,301.5 Z"/></g>
<g><path style="opacity:0.012" fill="#675f65" d="M 130.5,302.5 C 130.897,301.475 131.563,301.308 132.5,302C 131.906,302.464 131.239,302.631 130.5,302.5 Z"/></g>
<g><path style="opacity:0.004" fill="#6b5f62" d="M 140.5,301.5 C 141.833,302.167 141.833,302.167 140.5,301.5 Z"/></g>
<g><path style="opacity:0.006" fill="#695c5f" d="M 145.5,302.5 C 145.897,301.475 146.563,301.308 147.5,302C 146.906,302.464 146.239,302.631 145.5,302.5 Z"/></g>
<g><path style="opacity:0.012" fill="#6a595e" d="M 154.5,301.5 C 155.833,302.167 155.833,302.167 154.5,301.5 Z"/></g>
<g><path style="opacity:0.008" fill="#705b5b" d="M 158.5,301.5 C 159.833,302.167 159.833,302.167 158.5,301.5 Z"/></g>
<g><path style="opacity:0.004" fill="#6f5c5b" d="M 160.5,301.5 C 161.833,302.167 161.833,302.167 160.5,301.5 Z"/></g>
<g><path style="opacity:0.004" fill="#6b696d" d="M 92.5,302.5 C 93.8333,303.167 93.8333,303.167 92.5,302.5 Z"/></g>
<g><path style="opacity:0.004" fill="#6c696a" d="M 95.5,302.5 C 96.8333,303.167 96.8333,303.167 95.5,302.5 Z"/></g>
<g><path style="opacity:0.008" fill="#696a6b" d="M 83.5,303.5 C 84.8333,304.167 84.8333,304.167 83.5,303.5 Z"/></g>
<g><path style="opacity:1" fill="#343b45" d="M 204.5,341.5 C 204.916,343.752 206.249,345.252 208.5,346C 214.498,346.591 220.498,347.091 226.5,347.5C 235.5,347.5 244.5,347.5 253.5,347.5C 268.343,347.171 283.01,347.504 297.5,348.5C 274.498,348.333 251.498,348.5 228.5,349C 270.837,349.167 313.171,349.667 355.5,350.5C 354.347,351.687 354.347,352.687 355.5,353.5C 355.065,356.157 354.065,358.491 352.5,360.5C 302.83,360.342 253.164,359.842 203.5,359C 196.921,356.589 192.588,352.089 190.5,345.5C 185.243,335.067 178.243,325.9 169.5,318C 167.754,317.529 166.087,316.862 164.5,316C 141.144,315.183 121.144,315.35 104.5,316.5C 97.2113,317.056 89.8779,318.223 82.5,320C 79.8981,320.935 78.3981,322.768 78,325.5C 78.4004,353.21 79.9004,380.877 82.5,408.5C 88.3868,394.609 98.3868,385.275 112.5,380.5C 113.833,380.5 115.167,380.5 116.5,380.5C 193.665,381.499 270.998,381.833 348.5,381.5C 348.5,385.167 348.5,388.833 348.5,392.5C 273.167,392.5 197.833,392.5 122.5,392.5C 104.937,394.895 94.7708,404.895 92,422.5C 91.5006,427.823 91.334,433.156 91.5,438.5C 89.1432,438.663 86.8098,438.497 84.5,438C 82.8666,433.437 81.0333,428.937 79,424.5C 75.7798,422.223 72.2798,420.889 68.5,420.5C 67.8238,393.553 66.1572,366.72 63.5,340C 64.0268,331.457 65.1935,322.957 67,314.5C 67.9299,312.448 69.4299,310.948 71.5,310C 79.8041,306.472 88.4708,304.472 97.5,304C 121.542,303.05 145.542,303.384 169.5,305C 175.807,307.635 181.307,311.468 186,316.5C 192.416,324.735 198.582,333.068 204.5,341.5 Z"/></g>
<g><path style="opacity:0.004" fill="#822925" d="M 546.5,318.5 C 547.833,319.167 547.833,319.167 546.5,318.5 Z"/></g>
<g><path style="opacity:1" fill="#a9acad" d="M 104.5,316.5 C 124.874,316.073 145.207,316.573 165.5,318C 170.252,320.748 174.419,324.248 178,328.5C 182.188,334.234 186.354,339.901 190.5,345.5C 192.588,352.089 196.921,356.589 203.5,359C 253.164,359.842 302.83,360.342 352.5,360.5C 351.992,364.736 350.992,368.736 349.5,372.5C 348.318,373.628 347.651,375.628 347.5,378.5C 269.833,378.333 192.166,378.5 114.5,379C 112.657,379.159 111.991,379.659 112.5,380.5C 98.3868,385.275 88.3868,394.609 82.5,408.5C 79.9004,380.877 78.4004,353.21 78,325.5C 78.3981,322.768 79.8981,320.935 82.5,320C 89.8779,318.223 97.2113,317.056 104.5,316.5 Z"/></g>
<g><path style="opacity:0.008" fill="#802723" d="M 545.5,324.5 C 546.833,325.167 546.833,325.167 545.5,324.5 Z"/></g>
<g><path style="opacity:0.008" fill="#775555" d="M 194.5,325.5 C 195.833,326.167 195.833,326.167 194.5,325.5 Z"/></g>
<g><path style="opacity:0.004" fill="#7c2825" d="M 545.5,327.5 C 546.833,328.167 546.833,328.167 545.5,327.5 Z"/></g>
<g><path style="opacity:0.008" fill="#7c2623" d="M 545.5,329.5 C 546.833,330.167 546.833,330.167 545.5,329.5 Z"/></g>
<g><path style="opacity:0.004" fill="#6e6e73" d="M 62.5,330.5 C 63.8333,331.167 63.8333,331.167 62.5,330.5 Z"/></g>
<g><path style="opacity:0.004" fill="#874841" d="M 218.5,334.5 C 217.833,335.167 217.833,335.167 218.5,334.5 Z"/></g>
<g><path style="opacity:1" fill="#222834" d="M 190.5,345.5 C 186.354,339.901 182.188,334.234 178,328.5C 174.419,324.248 170.252,320.748 165.5,318C 145.207,316.573 124.874,316.073 104.5,316.5C 121.144,315.35 141.144,315.183 164.5,316C 166.087,316.862 167.754,317.529 169.5,318C 178.243,325.9 185.243,335.067 190.5,345.5 Z"/></g>
<g><path style="opacity:0.004" fill="#8c4037" d="M 622.5,336.5 C 623.833,337.167 623.833,337.167 622.5,336.5 Z"/></g>
<g><path style="opacity:0.008" fill="#765c5f" d="M 205.5,341.5 C 204.833,340.167 204.833,340.167 205.5,341.5 Z"/></g>
<g><path style="opacity:0.008" fill="#765e5c" d="M 205.5,341.5 C 206.833,342.167 206.833,342.167 205.5,341.5 Z"/></g>
<g><path style="opacity:0.008" fill="#884b4b" d="M 225.5,341.5 C 226.833,342.167 226.833,342.167 225.5,341.5 Z"/></g>
<g><path style="opacity:1" fill="#0d3c4f" d="M 297.5,348.5 C 317.833,348.5 338.167,348.5 358.5,348.5C 357.248,350.001 356.248,351.668 355.5,353.5C 354.347,352.687 354.347,351.687 355.5,350.5C 313.171,349.667 270.837,349.167 228.5,349C 251.498,348.5 274.498,348.333 297.5,348.5 Z"/></g>
<g><path style="opacity:0.008" fill="#6d6b71" d="M 63.5,363.5 C 64.525,363.897 64.6917,364.563 64,365.5C 63.5357,364.906 63.369,364.239 63.5,363.5 Z"/></g>
<g><path style="opacity:0.012" fill="#7b2d27" d="M 544.5,366.5 C 545.833,367.167 545.833,367.167 544.5,366.5 Z"/></g>
<g><path style="opacity:1" fill="#c0c4c4" d="M 349.5,372.5 C 349.5,374.833 349.5,377.167 349.5,379.5C 271.665,379.167 193.998,379.501 116.5,380.5C 115.167,380.5 113.833,380.5 112.5,380.5C 111.991,379.659 112.657,379.159 114.5,379C 192.166,378.5 269.833,378.333 347.5,378.5C 347.651,375.628 348.318,373.628 349.5,372.5 Z"/></g>
<g><path style="opacity:0.004" fill="#90332d" d="M 569.5,379.5 C 570.833,380.167 570.833,380.167 569.5,379.5 Z"/></g>
<g><path style="opacity:1" fill="#2d323e" d="M 349.5,379.5 C 349.672,380.492 349.338,381.158 348.5,381.5C 270.998,381.833 193.665,381.499 116.5,380.5C 193.998,379.501 271.665,379.167 349.5,379.5 Z"/></g>
<g><path style="opacity:0.008" fill="#9b3d35" d="M 621.5,383.5 C 622.833,384.167 622.833,384.167 621.5,383.5 Z"/></g>
<g><path style="opacity:0.008" fill="#942f29" d="M 571.5,384.5 C 572.833,385.167 572.833,385.167 571.5,384.5 Z"/></g>
<g><path style="opacity:0.008" fill="#9b3f38" d="M 630.5,402.5 C 630.369,401.761 630.536,401.094 631,400.5C 631.692,401.437 631.525,402.103 630.5,402.5 Z"/></g>
<g><path style="opacity:0.008" fill="#71302d" d="M 541.5,421.5 C 542.833,422.167 542.833,422.167 541.5,421.5 Z"/></g>
<g><path style="opacity:1" fill="#671310" d="M 68.5,420.5 C 72.2798,420.889 75.7798,422.223 79,424.5C 81.0333,428.937 82.8666,433.437 84.5,438C 86.8098,438.497 89.1432,438.663 91.5,438.5C 105.388,438.029 117.221,442.696 127,452.5C 132.231,462.391 131.398,471.724 124.5,480.5C 130.054,492.93 128.054,503.93 118.5,513.5C 121.976,535.359 112.643,545.359 90.5,543.5C 86.3435,543.669 82.3435,543.002 78.5,541.5C 77.2739,541.52 76.2739,541.853 75.5,542.5C 54.5633,536.383 42.7299,522.383 40,500.5C 37.7403,481.857 39.2403,463.524 44.5,445.5C 47.4218,437.835 51.7552,431.002 57.5,425C 61.0749,423.199 64.7416,421.699 68.5,420.5 Z"/></g>
<g><path style="opacity:1" fill="#303944" d="M 435.5,307.5 C 470.622,305.315 498.455,318.315 519,346.5C 539.904,386.443 534.071,421.943 501.5,453C 467.214,477.636 432.214,478.636 396.5,456C 364.493,429.804 355.659,397.304 370,358.5C 383.258,330.309 405.091,313.309 435.5,307.5 Z"/></g>
<g><path style="opacity:1" fill="#e0e0e0" d="M 434.5,324.5 C 469.681,321.664 494.848,335.997 510,367.5C 519.783,407.433 505.949,435.6 468.5,452C 434.419,461.532 407.586,451.699 388,422.5C 370.956,385.646 379.123,355.812 412.5,333C 419.607,329.248 426.94,326.415 434.5,324.5 Z"/></g>
<g><path style="opacity:1" fill="#f44034" d="M 67.5,434.5 C 69.451,434.227 70.951,434.893 72,436.5C 72.3751,441.21 73.0418,445.877 74,450.5C 74.899,452.368 76.399,453.368 78.5,453.5C 93.494,447.543 106.661,450.21 118,461.5C 119.858,467.581 118.025,472.081 112.5,475C 104.577,476.235 96.5767,476.902 88.5,477C 84.8411,476.963 81.6745,478.129 79,480.5C 77.9595,483.636 78.7928,486.136 81.5,488C 92.5556,488.315 103.556,488.482 114.5,488.5C 116.539,494.346 115.539,499.512 111.5,504C 106.584,505.161 101.584,505.827 96.5,506C 92.9905,509.048 92.6572,512.381 95.5,516C 98.9869,517.622 102.654,518.455 106.5,518.5C 106.665,521.518 106.498,524.518 106,527.5C 105.167,528.333 104.333,529.167 103.5,530C 73.3701,536.032 56.5368,523.865 53,493.5C 51.3818,477.782 53.0485,462.449 58,447.5C 60.2228,442.35 63.3895,438.017 67.5,434.5 Z"/></g>
<g><path style="opacity:0.004" fill="#8c4941" d="M 44.5,445.5 C 43.8333,444.167 43.8333,444.167 44.5,445.5 Z"/></g>
<g><path style="opacity:0.008" fill="#8d4841" d="M 38.5,462.5 C 39.8333,463.167 39.8333,463.167 38.5,462.5 Z"/></g>
<g><path style="opacity:0.004" fill="#79322e" d="M 537.5,465.5 C 538.833,466.167 538.833,466.167 537.5,465.5 Z"/></g>
<g><path style="opacity:0.004" fill="#81332c" d="M 546.5,466.5 C 547.833,467.167 547.833,467.167 546.5,466.5 Z"/></g>
<g><path style="opacity:0.024" fill="#9a4138" d="M 637.5,470.5 C 638.833,471.167 638.833,471.167 637.5,470.5 Z"/></g>
<g><path style="opacity:1" fill="#343b46" d="M 388.5,467.5 C 392.255,469.904 396.255,471.904 400.5,473.5C 396.992,511.866 389.825,549.533 379,586.5C 373.985,592.091 367.818,595.758 360.5,597.5C 359.551,596.848 358.385,596.514 357,596.5C 302.345,597.152 247.845,597.819 193.5,598.5C 192.167,598.5 190.833,598.5 189.5,598.5C 168.444,599.395 146.277,599.729 123,599.5C 114.378,599.782 105.878,598.948 97.5,597C 89.3333,594.167 83.8333,588.667 81,580.5C 78.9586,568.928 77.6252,557.261 77,545.5C 76.4867,544.473 75.9867,543.473 75.5,542.5C 76.2739,541.853 77.2739,541.52 78.5,541.5C 82.3435,543.002 86.3435,543.669 90.5,543.5C 91.2665,553.5 92.0999,563.5 93,573.5C 94.0425,578.279 96.5425,581.946 100.5,584.5C 100.747,585.876 102.081,586.71 104.5,587C 188.5,587.667 272.5,587.667 356.5,587C 358.919,586.71 360.253,585.876 360.5,584.5C 363.021,582.981 365.521,581.314 368,579.5C 377.604,542.649 384.437,505.316 388.5,467.5 Z"/></g>
<g><path style="opacity:1" fill="#f53f34" d="M 400.5,473.5 C 415.7,481.81 432.033,485.81 449.5,485.5C 448.031,503.853 446.365,522.186 444.5,540.5C 440.593,569.917 437.926,599.583 436.5,629.5C 361.167,629.5 285.833,629.5 210.5,629.5C 209.731,619.174 209.065,608.841 208.5,598.5C 259.196,598.82 309.863,598.486 360.5,597.5C 367.818,595.758 373.985,592.091 379,586.5C 389.825,549.533 396.992,511.866 400.5,473.5 Z"/></g>
<g><path style="opacity:1" fill="#2a343f" d="M 507.5,465.5 C 510.298,466.706 512.465,468.706 514,471.5C 515.874,473.569 516.874,475.902 517,478.5C 513.353,480.979 510.187,483.979 507.5,487.5C 503.046,484.312 498.046,482.812 492.5,483C 491.373,481.247 490.373,479.413 489.5,477.5C 494.5,474.667 499.5,471.833 504.5,469C 505.71,467.961 506.71,466.794 507.5,465.5 Z"/></g>
<g><path style="opacity:0.004" fill="#90453f" d="M 36.5,478.5 C 37.8333,479.167 37.8333,479.167 36.5,478.5 Z"/></g>
<g><path style="opacity:1" fill="#681310" d="M 621.5,384.5 C 623.992,390.818 626.992,396.818 630.5,402.5C 645.111,443.058 640.611,481.391 617,517.5C 611.968,522.867 606.635,527.867 601,532.5C 601.424,538.805 601.424,545.138 601,551.5C 600.323,556.205 598.49,560.372 595.5,564C 599.886,570.772 602.886,578.105 604.5,586C 598.865,606.004 587.199,610.337 569.5,599C 565.452,594.62 561.785,589.954 558.5,585C 550.543,583.606 544.043,579.772 539,573.5C 512.503,586.311 485.003,588.977 456.5,581.5C 454.362,582.429 453.196,584.096 453,586.5C 451.304,600.795 450.137,615.129 449.5,629.5C 445.167,629.5 440.833,629.5 436.5,629.5C 437.926,599.583 440.593,569.917 444.5,540.5C 444.34,542.199 444.506,543.866 445,545.5C 445.481,541.469 446.147,537.469 447,533.5C 447.333,534.167 447.667,534.833 448,535.5C 449.243,534.664 450.41,534.997 451.5,536.5C 448.924,537.883 449.258,538.717 452.5,539C 451.747,540.487 450.914,540.654 450,539.5C 449.667,540.833 449.333,542.167 449,543.5C 447.984,544.634 447.317,544.301 447,542.5C 446.333,543.833 446.333,545.167 447,546.5C 447.718,545.549 448.551,545.383 449.5,546C 448.549,546.718 448.383,547.551 449,548.5C 450.049,547.483 451.216,547.316 452.5,548C 451.833,548.333 451.167,548.667 450.5,549C 451.701,549.903 452.535,551.069 453,552.5C 453.333,551.5 453.667,550.5 454,549.5C 454.703,554.695 454.536,559.861 453.5,565C 453.324,567.359 453.991,567.859 455.5,566.5C 455.577,567.75 456.244,568.583 457.5,569C 477.592,573.922 497.592,573.589 517.5,568C 522.572,566.487 527.238,564.32 531.5,561.5C 529.664,560.081 527.664,558.914 525.5,558C 521.702,554.188 518.035,550.355 514.5,546.5C 514.44,545.957 514.107,545.624 513.5,545.5C 510.687,547.275 507.687,548.108 504.5,548C 505.833,547.333 507.167,546.667 508.5,546C 507.353,543.915 508.02,542.415 510.5,541.5C 509.242,542.016 508.242,541.35 507.5,539.5C 508.376,538.749 509.376,538.249 510.5,538C 509.316,536.855 509.316,535.688 510.5,534.5C 514.137,528.764 514.471,522.764 511.5,516.5C 509.754,512.835 508.421,509.002 507.5,505C 507.858,502.968 508.692,501.134 510,499.5C 510.667,500.167 511.333,500.833 512,501.5C 513.74,500.284 514.74,498.618 515,496.5C 515.66,502.148 517.327,507.481 520,512.5C 522.548,516.36 526.048,517.86 530.5,517C 528.942,516.79 527.609,516.29 526.5,515.5C 528.857,515.663 531.19,515.497 533.5,515C 536.623,511.98 540.29,510.98 544.5,512C 548.434,515.123 548.434,518.29 544.5,521.5C 538.35,525.336 532.85,530.003 528,535.5C 527.075,541.484 529.242,545.984 534.5,549C 538.039,550.504 541.705,550.837 545.5,550C 551.633,546.694 557.633,543.194 563.5,539.5C 569.003,541.14 570.503,544.473 568,549.5C 562.585,555.458 556.085,559.791 548.5,562.5C 550.47,568.567 554.637,571.567 561,571.5C 580.258,568.907 589.258,557.907 588,538.5C 584.578,525.325 579.245,512.992 572,501.5C 566.151,493.473 558.984,487.139 550.5,482.5C 550.938,482.565 551.272,482.399 551.5,482C 547.752,480.22 543.919,480.054 540,481.5C 537.084,478.558 535.584,479.225 535.5,483.5C 533.409,483.682 531.409,483.348 529.5,482.5C 528.479,481.998 528.312,481.332 529,480.5C 529.654,481.696 530.154,481.696 530.5,480.5C 529.975,479.808 529.308,479.308 528.5,479C 530.041,477.421 531.208,475.587 532,473.5C 534.129,474.863 534.629,474.529 533.5,472.5C 534.628,471.738 535.795,471.071 537,470.5C 538.308,471.151 539.141,470.485 539.5,468.5C 551.032,467.772 561.032,471.272 569.5,479C 572.313,482.981 575.647,486.481 579.5,489.5C 595.609,467.777 599.109,444.111 590,418.5C 578.98,397.631 569.48,376.131 561.5,354C 558.452,353.394 555.952,351.894 554,349.5C 546.805,336.952 545.805,323.952 551,310.5C 563.086,278.738 585.753,259.738 619,253.5C 624.431,254.249 626.764,257.249 626,262.5C 620.125,271.504 616.625,281.337 615.5,292C 615.358,299.866 615.858,308.033 617,316.5C 618.576,323.53 619.909,330.53 621,337.5C 620.5,339.333 619.333,340.5 617.5,341C 611.895,341.951 606.562,341.118 601.5,338.5C 602.076,346.423 604.243,354.089 608,361.5C 612.022,369.559 616.522,377.225 621.5,384.5 Z"/></g>
<g><path style="opacity:0.008" fill="#9c3028" d="M 587.5,471.5 C 588.833,472.167 588.833,472.167 587.5,471.5 Z"/></g>
<g><path style="opacity:0.012" fill="#96342d" d="M 602.5,340.5 C 603.833,341.167 603.833,341.167 602.5,340.5 Z"/></g>
<g><path style="opacity:1" fill="#f54034" d="M 603.5,270.5 C 604.675,270.281 605.675,270.614 606.5,271.5C 604.827,275.352 603.661,279.352 603,283.5C 602.118,295.898 602.618,308.231 604.5,320.5C 604.267,321.932 603.6,322.432 602.5,322C 599.833,319.333 597.167,316.667 594.5,314C 590.219,312.542 587.053,313.708 585,317.5C 584.663,333.136 587.663,348.136 594,362.5C 603.015,379.198 612.015,395.865 621,412.5C 629.911,439.167 628.911,465.5 618,491.5C 612.901,502.706 605.234,511.706 595,518.5C 592.38,513.425 589.88,508.259 587.5,503C 608.813,475.479 613.646,445.313 602,412.5C 593.53,396.559 585.863,380.226 579,363.5C 576.747,355.316 575.58,346.983 575.5,338.5C 576.038,330.392 576.872,322.392 578,314.5C 574.645,309.69 570.979,309.356 567,313.5C 565.853,316.618 564.52,319.618 563,322.5C 564.532,311.421 568.865,301.421 576,292.5C 584.05,283.585 593.217,276.252 603.5,270.5 Z"/></g>
<g><path style="opacity:1" fill="#f44034" d="M 475.5,481.5 C 476.5,481.5 477.5,481.5 478.5,481.5C 478.866,483.905 479.533,486.238 480.5,488.5C 478.082,492.335 475.915,496.335 474,500.5C 472.341,515.853 476.508,529.353 486.5,541C 476.822,542.453 467.655,540.953 459,536.5C 459.68,519.152 460.847,501.819 462.5,484.5C 467.035,483.863 471.368,482.863 475.5,481.5 Z"/></g>
<g><path style="opacity:1" fill="#f54034" d="M 550.5,482.5 C 558.984,487.139 566.151,493.473 572,501.5C 579.245,512.992 584.578,525.325 588,538.5C 589.258,557.907 580.258,568.907 561,571.5C 554.637,571.567 550.47,568.567 548.5,562.5C 556.085,559.791 562.585,555.458 568,549.5C 570.503,544.473 569.003,541.14 563.5,539.5C 557.633,543.194 551.633,546.694 545.5,550C 541.705,550.837 538.039,550.504 534.5,549C 529.242,545.984 527.075,541.484 528,535.5C 532.85,530.003 538.35,525.336 544.5,521.5C 548.434,518.29 548.434,515.123 544.5,512C 540.29,510.98 536.623,511.98 533.5,515C 531.19,515.497 528.857,515.663 526.5,515.5C 523.572,514.409 521.406,512.409 520,509.5C 517.858,505.03 517.191,500.363 518,495.5C 523.108,490.026 529.275,486.193 536.5,484C 541.019,481.633 545.686,481.133 550.5,482.5 Z"/></g>
<g><path style="opacity:0.004" fill="#9c2e27" d="M 579.5,486.5 C 580.833,487.167 580.833,487.167 579.5,486.5 Z"/></g>
<g><path style="opacity:1" fill="#f54035" d="M 511.5,516.5 C 514.471,522.764 514.137,528.764 510.5,534.5C 502.902,538.292 496.735,536.625 492,529.5C 486.807,521.201 484.807,512.201 486,502.5C 491.738,494.927 498.071,494.594 505,501.5C 505.928,507.145 508.095,512.145 511.5,516.5 Z"/></g>
<g><path style="opacity:0.013" fill="#96352d" d="M 602.5,544.5 C 603.573,545.251 603.74,546.251 603,547.5C 602.517,546.552 602.351,545.552 602.5,544.5 Z"/></g>
<g><path style="opacity:1" fill="#cecece" d="M 122.5,392.5 C 197.331,393.499 272.331,393.833 347.5,393.5C 348.003,398.5 348.336,398.167 348.5,392.5C 349.673,407.871 353.839,422.538 361,436.5C 368.575,448.242 377.742,458.575 388.5,467.5C 384.437,505.316 377.604,542.649 368,579.5C 365.521,581.314 363.021,582.981 360.5,584.5C 273.821,585.831 187.154,585.831 100.5,584.5C 96.5425,581.946 94.0425,578.279 93,573.5C 92.0999,563.5 91.2665,553.5 90.5,543.5C 112.643,545.359 121.976,535.359 118.5,513.5C 128.054,503.93 130.054,492.93 124.5,480.5C 131.398,471.724 132.231,462.391 127,452.5C 117.221,442.696 105.388,438.029 91.5,438.5C 91.334,433.156 91.5006,427.823 92,422.5C 94.7708,404.895 104.937,394.895 122.5,392.5 Z"/></g>
<g><path style="opacity:1" fill="#ecedec" d="M 122.5,392.5 C 197.833,392.5 273.167,392.5 348.5,392.5C 348.336,398.167 348.003,398.5 347.5,393.5C 272.331,393.833 197.331,393.499 122.5,392.5 Z"/></g>
<g><path style="opacity:1" fill="#f44034" d="M 514.5,546.5 C 518.035,550.355 521.702,554.188 525.5,558C 527.664,558.914 529.664,560.081 531.5,561.5C 527.238,564.32 522.572,566.487 517.5,568C 497.592,573.589 477.592,573.922 457.5,569C 456.244,568.583 455.577,567.75 455.5,566.5C 455.593,560.484 455.926,554.484 456.5,548.5C 461.534,549.474 466.534,550.641 471.5,552C 476,552.167 480.5,552.333 485,552.5C 495.429,553.266 505.262,551.266 514.5,546.5 Z"/></g>
<g><path style="opacity:0.004" fill="#716a6c" d="M 76.5,567.5 C 77.8333,568.167 77.8333,568.167 76.5,567.5 Z"/></g>
<g><path style="opacity:1" fill="#f34135" d="M 584.5,575.5 C 588.888,577.396 591.222,580.896 591.5,586C 591.288,590.212 589.121,592.379 585,592.5C 579.444,591.291 575.277,588.124 572.5,583C 576.919,581.064 580.919,578.564 584.5,575.5 Z"/></g>
<g><path style="opacity:0.004" fill="#6d6b6e" d="M 81.5,585.5 C 82.8333,586.167 82.8333,586.167 81.5,585.5 Z"/></g>
<g><path style="opacity:0.004" fill="#9e302a" d="M 505.5,586.5 C 505.897,585.475 506.563,585.308 507.5,586C 506.906,586.464 506.239,586.631 505.5,586.5 Z"/></g>
<g><path style="opacity:1" fill="#292d38" d="M 100.5,584.5 C 187.154,585.831 273.821,585.831 360.5,584.5C 360.253,585.876 358.919,586.71 356.5,587C 272.5,587.667 188.5,587.667 104.5,587C 102.081,586.71 100.747,585.876 100.5,584.5 Z"/></g>
<g><path style="opacity:0.004" fill="#9d332c" d="M 453.5,592.5 C 454.833,593.167 454.833,593.167 453.5,592.5 Z"/></g>
<g><path style="opacity:1" fill="#0a3a4d" d="M 360.5,597.5 C 309.863,598.486 259.196,598.82 208.5,598.5C 203.5,598.5 198.5,598.5 193.5,598.5C 247.845,597.819 302.345,597.152 357,596.5C 358.385,596.514 359.551,596.848 360.5,597.5 Z"/></g>
<g><path style="opacity:0.004" fill="#76767d" d="M 114.5,600.5 C 115.833,601.167 115.833,601.167 114.5,600.5 Z"/></g>
<g><path style="opacity:0.999" fill="#691410" d="M 189.5,598.5 C 190.833,598.5 192.167,598.5 193.5,598.5C 198.5,598.5 203.5,598.5 208.5,598.5C 209.065,608.841 209.731,619.174 210.5,629.5C 205.5,629.5 200.5,629.5 195.5,629.5C 195.506,619.74 194.672,610.073 193,600.5C 191.698,599.915 190.531,599.249 189.5,598.5 Z"/></g>
<g><path style="opacity:0.008" fill="#9a3d35" d="M 451.5,611.5 C 452.833,612.167 452.833,612.167 451.5,611.5 Z"/></g>
<g><path style="opacity:0.012" fill="#935451" d="M 193.5,623.5 C 194.833,624.167 194.833,624.167 193.5,623.5 Z"/></g>
<g><path style="opacity:0.004" fill="#8d5452" d="M 193.5,625.5 C 194.833,626.167 194.833,626.167 193.5,625.5 Z"/></g>
<g><path style="opacity:0.02" fill="#8a504e" d="M 193.5,627.5 C 194.525,627.897 194.692,628.563 194,629.5C 193.536,628.906 193.369,628.239 193.5,627.5 Z"/></g>
<g><path style="opacity:0.004" fill="#37221e" d="M 350.5,697.5 C 351.833,698.167 351.833,698.167 350.5,697.5 Z"/></g>
<g><path style="opacity:0.004" fill="#414040" d="M 26.5,698.5 C 27.8333,699.167 27.8333,699.167 26.5,698.5 Z"/></g>
<g><path style="opacity:0.008" fill="#3f3e3b" d="M 29.5,698.5 C 30.8333,699.167 30.8333,699.167 29.5,698.5 Z"/></g>
<g><path style="opacity:0.004" fill="#3a3b37" d="M 37.5,698.5 C 38.8333,699.167 38.8333,699.167 37.5,698.5 Z"/></g>
<g><path style="opacity:0.008" fill="#2a2a28" d="M 124.5,699.5 C 124.897,698.475 125.563,698.308 126.5,699C 125.906,699.464 125.239,699.631 124.5,699.5 Z"/></g>
<g><path style="opacity:0.988" fill="#010101" d="M 366.5,716.5 C 360.093,709.955 353.593,709.955 347,716.5C 346.137,722.338 348.637,726.171 354.5,728C 363.805,729.767 372.472,733.1 380.5,738C 389.256,749.538 388.256,760.205 377.5,770C 365.61,776.348 353.277,777.181 340.5,772.5C 333.222,767.756 329.555,761.256 329.5,753C 333.68,753.499 337.847,753.333 342,752.5C 348.689,763.168 357.355,765.168 368,758.5C 370,755.5 370,752.5 368,749.5C 367.329,748.748 366.496,748.414 365.5,748.5C 358.961,745.107 351.961,742.774 344.5,741.5C 340.181,738.998 336.181,735.998 332.5,732.5C 327.467,720.968 329.8,711.301 339.5,703.5C 353.18,696.712 366.347,697.712 379,706.5C 381.944,710.053 384.11,714.053 385.5,718.5C 378.692,720.285 372.358,719.619 366.5,716.5 Z"/></g>
<g><path style="opacity:0.993" fill="#020201" d="M 623.5,703.5 C 628.223,707.78 631.556,712.947 633.5,719C 633,719.5 632.5,720 632,720.5C 628.948,719.934 625.948,719.601 623,719.5C 621.674,719.755 620.674,720.422 620,721.5C 618.586,720.009 617.086,718.675 615.5,717.5C 610.275,711.052 604.275,710.052 597.5,714.5C 593.864,717.524 593.531,721.024 596.5,725C 603.886,728.431 611.553,731.098 619.5,733C 631.968,737.72 636.468,746.553 633,759.5C 627.313,770.6 618.146,775.933 605.5,775.5C 593.937,776.217 584.937,771.883 578.5,762.5C 577.962,759.811 577.295,757.144 576.5,754.5C 576.833,753.5 577.5,752.833 578.5,752.5C 582.95,751.965 587.617,752.632 592.5,754.5C 596.232,761.141 601.898,763.641 609.5,762C 610.737,761.768 611.737,761.268 612.5,760.5C 614.5,760.5 615.5,759.5 615.5,757.5C 616.629,755.372 616.796,753.039 616,750.5C 615.292,749.619 614.458,748.953 613.5,748.5C 612.4,747.442 611.066,746.608 609.5,746C 598.339,744.458 588.672,739.958 580.5,732.5C 574.481,711.319 582.648,700.319 605,699.5C 611.557,699.182 617.724,700.515 623.5,703.5 Z"/></g>
<g><path style="opacity:0.99" fill="#010101" d="M 165.5,715.5 C 173.76,733.852 171.76,750.852 159.5,766.5C 145.892,776.476 131.226,778.143 115.5,771.5C 99.8215,758.641 94.9882,742.641 101,723.5C 109.39,703.72 124.223,696.22 145.5,701C 154.009,703.349 160.675,708.182 165.5,715.5 Z M 143.5,715.5 C 148.224,717.576 151.058,721.242 152,726.5C 154.706,736.591 153.706,746.258 149,755.5C 142.01,762.716 134.177,764.049 125.5,759.5C 127.831,759.141 127.665,758.474 125,757.5C 124.601,757.728 124.435,758.062 124.5,758.5C 118.571,754.618 115.738,748.951 116,741.5C 114.533,731.749 117.033,723.249 123.5,716C 130.279,711.677 136.945,711.51 143.5,715.5 Z"/></g>
<g><path style="opacity:0.989" fill="#010101" d="M 235.5,755.5 C 234.693,751.889 232.86,748.889 230,746.5C 227.466,747.52 224.633,747.52 221.5,746.5C 220.184,755.393 220.184,764.226 221.5,773C 216.019,774.449 210.352,774.949 204.5,774.5C 204.5,749.833 204.5,725.167 204.5,700.5C 217.171,700.333 229.838,700.5 242.5,701C 257.538,705.904 263.038,716.071 259,731.5C 256.025,736.975 251.858,741.308 246.5,744.5C 251.968,753.77 256.635,763.436 260.5,773.5C 255.167,774.833 249.833,774.833 244.5,773.5C 241.997,767.16 238.997,761.16 235.5,755.5 Z M 242.5,717.5 C 243.338,717.842 243.672,718.508 243.5,719.5C 245.304,724.479 244.304,728.979 240.5,733C 233.924,734.377 227.257,734.877 220.5,734.5C 220.334,727.159 220.5,719.826 221,712.5C 226.419,712.051 232.252,712.551 238.5,714C 240.324,714.66 241.657,715.827 242.5,717.5 Z"/></g>
<g><path style="opacity:0.987" fill="#020101" d="M 48.5,711.5 C 49.8109,714.135 51.4776,716.469 53.5,718.5C 56.4187,724.406 60.0854,729.74 64.5,734.5C 65.7589,738.025 67.7589,741.025 70.5,743.5C 71.072,744.973 71.9054,746.307 73,747.5C 73.3333,732.167 73.6667,716.833 74,701.5C 79,700.167 84,700.167 89,701.5C 89.5,725.831 89.6666,750.164 89.5,774.5C 84.4889,774.666 79.4889,774.499 74.5,774C 72.0235,770.855 69.6902,767.688 67.5,764.5C 65.6465,760.779 63.3131,757.446 60.5,754.5C 54.6024,745.052 48.4357,735.719 42,726.5C 41.5519,742.28 41.3852,758.28 41.5,774.5C 36.5,774.5 31.5,774.5 26.5,774.5C 26.448,751.379 26.1147,728.712 25.5,706.5C 25.5,706.167 25.5,705.833 25.5,705.5C 26.4511,704.081 26.7845,702.415 26.5,700.5C 31.1785,700.334 35.8452,700.501 40.5,701C 43.4138,704.4 46.0805,707.9 48.5,711.5 Z"/></g>
<g><path style="opacity:0.004" fill="#2a2d2e" d="M 152.5,701.5 C 153.833,702.167 153.833,702.167 152.5,701.5 Z"/></g>
<g><path style="opacity:0.985" fill="#010100" d="M 271.5,700.5 C 287.422,701.484 303.422,701.817 319.5,701.5C 319.665,704.85 319.498,708.183 319,711.5C 318.5,712 318,712.5 317.5,713C 307.506,713.5 297.506,713.666 287.5,713.5C 287.334,719.509 287.501,725.509 288,731.5C 296.749,730.516 305.582,730.183 314.5,730.5C 314.666,734.846 314.499,739.179 314,743.5C 313.586,743.957 313.086,744.291 312.5,744.5C 304.365,744.707 296.198,744.374 288,743.5C 287.501,749.491 287.334,755.491 287.5,761.5C 297.839,761.334 308.172,761.5 318.5,762C 319.464,766.066 319.797,770.233 319.5,774.5C 303.012,774.984 286.678,774.484 270.5,773C 270.967,749.427 271.3,725.261 271.5,700.5 Z"/></g>
<g><path style="opacity:0.986" fill="#010101" d="M 447.5,770.5 C 434.59,776.916 421.59,777.083 408.5,771C 401.72,766.61 397.554,760.443 396,752.5C 395.5,735.503 395.333,718.503 395.5,701.5C 400.88,701.676 406.213,701.342 411.5,700.5C 411.055,718.223 411.555,735.889 413,753.5C 415.917,759.385 420.75,762.385 427.5,762.5C 435.09,762.405 439.923,758.738 442,751.5C 442.333,734.833 442.667,718.167 443,701.5C 448.385,701.441 453.385,701.108 458,700.5C 458.667,718.167 458.667,735.833 458,753.5C 456.524,760.459 453.024,766.126 447.5,770.5 Z"/></g>
<g><path style="opacity:0.978" fill="#020101" d="M 470.5,700.5 C 475.762,700.195 480.928,700.529 486,701.5C 486.5,721.497 486.667,741.497 486.5,761.5C 496.5,761.5 506.5,761.5 516.5,761.5C 516.5,765.833 516.5,770.167 516.5,774.5C 501.167,774.5 485.833,774.5 470.5,774.5C 470.5,749.833 470.5,725.167 470.5,700.5 Z"/></g>
<g><path style="opacity:0.004" fill="#2a2321" d="M 487.5,701.5 C 488.833,702.167 488.833,702.167 487.5,701.5 Z"/></g>
<g><path style="opacity:0.983" fill="#010101" d="M 552.5,715.5 C 552.141,717.485 551.308,718.151 550,717.5C 549.5,736.497 549.333,755.497 549.5,774.5C 544.167,774.5 538.833,774.5 533.5,774.5C 533.5,754.167 533.5,733.833 533.5,713.5C 526.5,713.5 519.5,713.5 512.5,713.5C 512.5,709.5 512.5,705.5 512.5,701.5C 531.833,701.5 551.167,701.5 570.5,701.5C 571.154,705.839 570.154,709.673 567.5,713C 562.136,713.171 556.802,713.671 551.5,714.5C 551.624,715.107 551.957,715.44 552.5,715.5 Z"/></g>
<g><path style="opacity:0.008" fill="#252725" d="M 114.5,702.5 C 115.833,703.167 115.833,703.167 114.5,702.5 Z"/></g>
<g><path style="opacity:0.008" fill="#301b17" d="M 320.5,702.5 C 321.833,703.167 321.833,703.167 320.5,702.5 Z"/></g>
<g><path style="opacity:0.004" fill="#2e1e1a" d="M 339.5,703.5 C 338.833,702.167 338.833,702.167 339.5,703.5 Z"/></g>
<g><path style="opacity:0.008" fill="#27211f" d="M 468.5,702.5 C 469.833,703.167 469.833,703.167 468.5,702.5 Z"/></g>
<g><path style="opacity:0.008" fill="#29211f" d="M 510.5,701.5 C 511.525,701.897 511.692,702.563 511,703.5C 510.536,702.906 510.369,702.239 510.5,701.5 Z"/></g>
<g><path style="opacity:0.008" fill="#31302e" d="M 623.5,702.5 C 624.833,703.167 624.833,703.167 623.5,702.5 Z"/></g>
<g><path style="opacity:0.004" fill="#3b3b39" d="M 25.5,705.5 C 24.8333,704.167 24.8333,704.167 25.5,705.5 Z"/></g>
<g><path style="opacity:0.008" fill="#301e1a" d="M 393.5,701.5 C 394.598,702.601 394.765,703.934 394,705.5C 393.51,704.207 393.343,702.873 393.5,701.5 Z"/></g>
<g><path style="opacity:0.004" fill="#251f1c" d="M 510.5,705.5 C 511.833,706.167 511.833,706.167 510.5,705.5 Z"/></g>
<g><path style="opacity:0.008" fill="#2a2625" d="M 202.5,705.5 C 203.525,705.897 203.692,706.563 203,707.5C 202.536,706.906 202.369,706.239 202.5,705.5 Z"/></g>
<g><path style="opacity:0.004" fill="#221d19" d="M 468.5,706.5 C 469.833,707.167 469.833,707.167 468.5,706.5 Z"/></g>
<g><path style="opacity:0.008" fill="#201d1b" d="M 487.5,706.5 C 488.833,707.167 488.833,707.167 487.5,706.5 Z"/></g>
<g><path style="opacity:0.004" fill="#383836" d="M 25.5,706.5 C 25.631,707.239 25.4643,707.906 25,708.5C 24.3083,707.563 24.475,706.897 25.5,706.5 Z"/></g>
<g><path style="opacity:0.008" fill="#281916" d="M 320.5,707.5 C 321.833,708.167 321.833,708.167 320.5,707.5 Z"/></g>
<g><path style="opacity:0.004" fill="#281a17" d="M 412.5,707.5 C 413.833,708.167 413.833,708.167 412.5,707.5 Z"/></g>
<g><path style="opacity:0.004" fill="#261f1c" d="M 440.5,707.5 C 441.833,708.167 441.833,708.167 440.5,707.5 Z"/></g>
<g><path style="opacity:0.004" fill="#232424" d="M 71.5,708.5 C 72.8333,709.167 72.8333,709.167 71.5,708.5 Z"/></g>
<g><path style="opacity:0.012" fill="#262323" d="M 202.5,708.5 C 203.833,709.167 203.833,709.167 202.5,708.5 Z"/></g>
<g><path style="opacity:0.008" fill="#231a16" d="M 393.5,708.5 C 394.833,709.167 394.833,709.167 393.5,708.5 Z"/></g>
<g><path style="opacity:0.008" fill="#1b1717" d="M 468.5,708.5 C 469.598,709.601 469.765,710.934 469,712.5C 468.51,711.207 468.343,709.873 468.5,708.5 Z"/></g>
<g><path style="opacity:0.008" fill="#1c1b18" d="M 487.5,709.5 C 488.833,710.167 488.833,710.167 487.5,709.5 Z"/></g>
<g><path style="opacity:0.008" fill="#333231" d="M 24.5,710.5 C 25.8333,711.167 25.8333,711.167 24.5,710.5 Z"/></g>
<g><path style="opacity:0.008" fill="#212221" d="M 48.5,710.5 C 49.8333,711.167 49.8333,711.167 48.5,710.5 Z"/></g>
<g><path style="opacity:0.004" fill="#1c1b1a" d="M 105.5,710.5 C 106.833,711.167 106.833,711.167 105.5,710.5 Z"/></g>
<g><path style="opacity:0.008" fill="#211b19" d="M 440.5,710.5 C 441.833,711.167 441.833,711.167 440.5,710.5 Z"/></g>
<g><path style="opacity:0.004" fill="#1c1511" d="M 393.5,711.5 C 394.833,712.167 394.833,712.167 393.5,711.5 Z"/></g>
<g><path style="opacity:0.005" fill="#1e1c1a" d="M 202.5,712.5 C 203.573,713.251 203.74,714.251 203,715.5C 202.517,714.552 202.351,713.552 202.5,712.5 Z"/></g>
<g><path style="opacity:0.008" fill="#14100f" d="M 329.5,712.5 C 330.833,713.167 330.833,713.167 329.5,712.5 Z"/></g>
<g><path style="opacity:0.004" fill="#191210" d="M 393.5,713.5 C 394.833,714.167 394.833,714.167 393.5,713.5 Z"/></g>
<g><path style="opacity:0.004" fill="#181514" d="M 487.5,713.5 C 488.833,714.167 488.833,714.167 487.5,713.5 Z"/></g>
<g><path style="opacity:0.004" fill="#12120e" d="M 600.5,713.5 C 601.833,714.167 601.833,714.167 600.5,713.5 Z"/></g>
<g><path style="opacity:0.008" fill="#1b1d1a" d="M 71.5,714.5 C 72.8333,715.167 72.8333,715.167 71.5,714.5 Z"/></g>
<g><path style="opacity:0.008" fill="#1f1e1d" d="M 166.5,715.5 C 165.833,714.167 165.833,714.167 166.5,715.5 Z"/></g>
<g><path style="opacity:0.004" fill="#11100e" d="M 295.5,714.5 C 296.833,715.167 296.833,715.167 295.5,714.5 Z"/></g>
<g><path style="opacity:0.004" fill="#12100f" d="M 527.5,715.5 C 527.897,714.475 528.563,714.308 529.5,715C 528.906,715.464 528.239,715.631 527.5,715.5 Z"/></g>
<g><path style="opacity:0.008" fill="#110f0f" d="M 552.5,714.5 C 553.833,715.167 553.833,715.167 552.5,714.5 Z"/></g>
<g><path style="opacity:0.004" fill="#141310" d="M 554.5,714.5 C 555.833,715.167 555.833,715.167 554.5,714.5 Z"/></g>
<g><path style="opacity:0.004" fill="#141311" d="M 559.5,714.5 C 560.833,715.167 560.833,715.167 559.5,714.5 Z"/></g>
<g><path style="opacity:0.012" fill="#121111" d="M 597.5,714.5 C 598.833,715.167 598.833,715.167 597.5,714.5 Z"/></g>
<g><path style="opacity:0.004" fill="#1e1f1f" d="M 166.5,715.5 C 167.833,716.167 167.833,716.167 166.5,715.5 Z"/></g>
<g><path style="opacity:0.008" fill="#0e0b09" d="M 288.5,715.5 C 289.833,716.167 289.833,716.167 288.5,715.5 Z"/></g>
<g><path style="opacity:0.004" fill="#0e0e0d" d="M 531.5,715.5 C 532.833,716.167 532.833,716.167 531.5,715.5 Z"/></g>
<g><path style="opacity:0.004" fill="#171919" d="M 71.5,716.5 C 72.8333,717.167 72.8333,717.167 71.5,716.5 Z"/></g>
<g><path style="opacity:0.008" fill="#0d0c09" d="M 366.5,716.5 C 365.833,717.167 365.833,717.167 366.5,716.5 Z"/></g>
<g><path style="opacity:0.016" fill="#16120d" d="M 393.5,716.5 C 394.833,717.167 394.833,717.167 393.5,716.5 Z"/></g>
<g><path style="opacity:0.031" fill="#121515" d="M 53.5,717.5 C 54.8333,718.167 54.8333,718.167 53.5,717.5 Z"/></g>
<g><path style="opacity:0.004" fill="#181715" d="M 90.5,717.5 C 91.8333,718.167 91.8333,718.167 90.5,717.5 Z"/></g>
<g><path style="opacity:0.012" fill="#0c0b09" d="M 347.5,717.5 C 348.833,718.167 348.833,718.167 347.5,717.5 Z"/></g>
<g><path style="opacity:0.004" fill="#13110f" d="M 459.5,717.5 C 460.833,718.167 460.833,718.167 459.5,717.5 Z"/></g>
<g><path style="opacity:0.004" fill="#141112" d="M 468.5,714.5 C 469.629,716.628 469.796,718.961 469,721.5C 468.503,719.19 468.337,716.857 468.5,714.5 Z"/></g>
<g><path style="opacity:0.008" fill="#171514" d="M 615.5,717.5 C 615.631,718.239 615.464,718.906 615,719.5C 614.308,718.563 614.475,717.897 615.5,717.5 Z"/></g>
<g><path style="opacity:0.004" fill="#171814" d="M 202.5,719.5 C 203.833,720.167 203.833,720.167 202.5,719.5 Z"/></g>
<g><path style="opacity:0.008" fill="#100d0c" d="M 393.5,718.5 C 394.573,719.251 394.74,720.251 394,721.5C 393.517,720.552 393.351,719.552 393.5,718.5 Z"/></g>
<g><path style="opacity:0.012" fill="#181818" d="M 168.5,720.5 C 169.833,721.167 169.833,721.167 168.5,720.5 Z"/></g>
<g><path style="opacity:0.006" fill="#171716" d="M 202.5,721.5 C 203.525,721.897 203.692,722.563 203,723.5C 202.536,722.906 202.369,722.239 202.5,721.5 Z"/></g>
<g><path style="opacity:0.008" fill="#10100e" d="M 487.5,721.5 C 488.833,722.167 488.833,722.167 487.5,721.5 Z"/></g>
<g><path style="opacity:0.008" fill="#100f10" d="M 550.5,721.5 C 551.833,722.167 551.833,722.167 550.5,721.5 Z"/></g>
<g><path style="opacity:0.004" fill="#21201b" d="M 626.5,721.5 C 627.833,722.167 627.833,722.167 626.5,721.5 Z"/></g>
<g><path style="opacity:0.004" fill="#110f0d" d="M 412.5,722.5 C 413.833,723.167 413.833,723.167 412.5,722.5 Z"/></g>
<g><path style="opacity:0.016" fill="#0d0b0a" d="M 393.5,723.5 C 394.525,723.897 394.692,724.563 394,725.5C 393.536,724.906 393.369,724.239 393.5,723.5 Z"/></g>
<g><path style="opacity:0.004" fill="#131210" d="M 440.5,723.5 C 441.833,724.167 441.833,724.167 440.5,723.5 Z"/></g>
<g><path style="opacity:0.008" fill="#10100f" d="M 459.5,723.5 C 460.833,724.167 460.833,724.167 459.5,723.5 Z"/></g>
<g><path style="opacity:0.013" fill="#0f0e0d" d="M 468.5,723.5 C 469.622,725.288 469.789,727.288 469,729.5C 468.505,727.527 468.338,725.527 468.5,723.5 Z"/></g>
<g><path style="opacity:0.016" fill="#0f0f0e" d="M 550.5,723.5 C 551.833,724.167 551.833,724.167 550.5,723.5 Z"/></g>
<g><path style="opacity:0.008" fill="#141413" d="M 202.5,724.5 C 203.833,725.167 203.833,725.167 202.5,724.5 Z"/></g>
<g><path style="opacity:0.016" fill="#120e0e" d="M 412.5,724.5 C 413.833,725.167 413.833,725.167 412.5,724.5 Z"/></g>
<g><path style="opacity:0.009" fill="#100f0f" d="M 487.5,724.5 C 488.573,725.251 488.74,726.251 488,727.5C 487.517,726.552 487.351,725.552 487.5,724.5 Z"/></g>
<g><path style="opacity:0.005" fill="#100f0e" d="M 440.5,725.5 C 441.613,726.946 441.78,728.613 441,730.5C 440.506,728.866 440.34,727.199 440.5,725.5 Z"/></g>
<g><path style="opacity:0.004" fill="#0a0a0a" d="M 355.5,726.5 C 356.833,727.167 356.833,727.167 355.5,726.5 Z"/></g>
<g><path style="opacity:0.008" fill="#0e0f0f" d="M 603.5,726.5 C 604.833,727.167 604.833,727.167 603.5,726.5 Z"/></g>
<g><path style="opacity:0.007" fill="#0c0b09" d="M 393.5,726.5 C 394.598,727.601 394.765,728.934 394,730.5C 393.51,729.207 393.343,727.873 393.5,726.5 Z"/></g>
<g><path style="opacity:0.012" fill="#0f0f0c" d="M 412.5,727.5 C 413.833,728.167 413.833,728.167 412.5,727.5 Z"/></g>
<g><path style="opacity:0.008" fill="#141511" d="M 202.5,728.5 C 203.833,729.167 203.833,729.167 202.5,728.5 Z"/></g>
<g><path style="opacity:0.012" fill="#080807" d="M 288.5,728.5 C 289.833,729.167 289.833,729.167 288.5,728.5 Z"/></g>
<g><path style="opacity:0.004" fill="#0a0b0c" d="M 97.5,729.5 C 98.8333,730.167 98.8333,730.167 97.5,729.5 Z"/></g>
<g><path style="opacity:0.004" fill="#0f0f0b" d="M 577.5,729.5 C 578.833,730.167 578.833,730.167 577.5,729.5 Z"/></g>
<g><path style="opacity:0.008" fill="#0e0d0b" d="M 412.5,730.5 C 413.833,731.167 413.833,731.167 412.5,730.5 Z"/></g>
<g><path style="opacity:0.008" fill="#0d0f0c" d="M 468.5,730.5 C 469.833,731.167 469.833,731.167 468.5,730.5 Z"/></g>
<g><path style="opacity:0.004" fill="#0a0a09" d="M 315.5,731.5 C 316.833,732.167 316.833,732.167 315.5,731.5 Z"/></g>
<g><path style="opacity:0.004" fill="#080a08" d="M 331.5,732.5 C 330.833,731.167 330.833,731.167 331.5,732.5 Z"/></g>
<g><path style="opacity:0.012" fill="#100f0d" d="M 440.5,731.5 C 441.833,732.167 441.833,732.167 440.5,731.5 Z"/></g>
<g><path style="opacity:0.004" fill="#0e0f0c" d="M 487.5,731.5 C 488.833,732.167 488.833,732.167 487.5,731.5 Z"/></g>
<g><path style="opacity:0.004" fill="#0f110f" d="M 43.5,732.5 C 44.8333,733.167 44.8333,733.167 43.5,732.5 Z"/></g>
<g><path style="opacity:0.004" fill="#0a0909" d="M 97.5,732.5 C 98.8333,733.167 98.8333,733.167 97.5,732.5 Z"/></g>
<g><path style="opacity:0.004" fill="#0b0d0b" d="M 259.5,732.5 C 260.833,733.167 260.833,733.167 259.5,732.5 Z"/></g>
<g><path style="opacity:0.004" fill="#080a09" d="M 331.5,732.5 C 331.833,732.5 332.167,732.5 332.5,732.5C 332.315,733.17 331.981,733.17 331.5,732.5 Z"/></g>
<g><path style="opacity:0.008" fill="#0c0a0a" d="M 393.5,731.5 C 394.525,731.897 394.692,732.563 394,733.5C 393.536,732.906 393.369,732.239 393.5,731.5 Z"/></g>
<g><path style="opacity:0.016" fill="#0e0d0a" d="M 412.5,732.5 C 413.833,733.167 413.833,733.167 412.5,732.5 Z"/></g>
<g><path style="opacity:0.02" fill="#0f100f" d="M 580.5,732.5 C 579.833,733.167 579.833,733.167 580.5,732.5 Z"/></g>
<g><path style="opacity:0.004" fill="#111312" d="M 64.5,733.5 C 65.8333,734.167 65.8333,734.167 64.5,733.5 Z"/></g>
<g><path style="opacity:0.005" fill="#0f0e0d" d="M 440.5,733.5 C 441.573,734.251 441.74,735.251 441,736.5C 440.517,735.552 440.351,734.552 440.5,733.5 Z"/></g>
<g><path style="opacity:0.008" fill="#0b0e0a" d="M 459.5,733.5 C 460.833,734.167 460.833,734.167 459.5,733.5 Z"/></g>
<g><path style="opacity:0.012" fill="#0e0d0d" d="M 468.5,732.5 C 469.613,733.946 469.78,735.613 469,737.5C 468.506,735.866 468.34,734.199 468.5,732.5 Z"/></g>
<g><path style="opacity:0.004" fill="#0f0f0d" d="M 487.5,733.5 C 488.525,733.897 488.692,734.563 488,735.5C 487.536,734.906 487.369,734.239 487.5,733.5 Z"/></g>
<g><path style="opacity:0.008" fill="#222322" d="M 24.5,734.5 C 25.8333,735.167 25.8333,735.167 24.5,734.5 Z"/></g>
<g><path style="opacity:0.009" fill="#090807" d="M 393.5,734.5 C 394.629,736.628 394.796,738.961 394,741.5C 393.503,739.19 393.337,736.857 393.5,734.5 Z"/></g>
<g><path style="opacity:0.016" fill="#0c0b0a" d="M 412.5,735.5 C 413.833,736.167 413.833,736.167 412.5,735.5 Z"/></g>
<g><path style="opacity:0.004" fill="#131311" d="M 202.5,736.5 C 203.525,736.897 203.692,737.563 203,738.5C 202.536,737.906 202.369,737.239 202.5,736.5 Z"/></g>
<g><path style="opacity:0.004" fill="#090a09" d="M 315.5,736.5 C 316.833,737.167 316.833,737.167 315.5,736.5 Z"/></g>
<g><path style="opacity:0.004" fill="#131511" d="M 171.5,737.5 C 172.833,738.167 172.833,738.167 171.5,737.5 Z"/></g>
<g><path style="opacity:0.008" fill="#0f100f" d="M 550.5,737.5 C 551.833,738.167 551.833,738.167 550.5,737.5 Z"/></g>
<g><path style="opacity:0.008" fill="#222321" d="M 24.5,738.5 C 25.8333,739.167 25.8333,739.167 24.5,738.5 Z"/></g>
<g><path style="opacity:0.004" fill="#0b0b09" d="M 315.5,738.5 C 316.833,739.167 316.833,739.167 315.5,738.5 Z"/></g>
<g><path style="opacity:0.008" fill="#0d0b0b" d="M 412.5,737.5 C 413.525,737.897 413.692,738.563 413,739.5C 412.536,738.906 412.369,738.239 412.5,737.5 Z"/></g>
<g><path style="opacity:0.008" fill="#0d0f0d" d="M 468.5,738.5 C 469.833,739.167 469.833,739.167 468.5,738.5 Z"/></g>
<g><path style="opacity:0.004" fill="#121412" d="M 171.5,739.5 C 172.833,740.167 172.833,740.167 171.5,739.5 Z"/></g>
<g><path style="opacity:0.004" fill="#0d0f0c" d="M 440.5,739.5 C 441.833,740.167 441.833,740.167 440.5,739.5 Z"/></g>
<g><path style="opacity:0.012" fill="#101010" d="M 550.5,739.5 C 551.833,740.167 551.833,740.167 550.5,739.5 Z"/></g>
<g><path style="opacity:0.004" fill="#0d0d0c" d="M 69.5,740.5 C 70.8333,741.167 70.8333,741.167 69.5,740.5 Z"/></g>
<g><path style="opacity:0.024" fill="#0c0c09" d="M 412.5,740.5 C 413.833,741.167 413.833,741.167 412.5,740.5 Z"/></g>
<g><path style="opacity:0.014" fill="#0d0d0c" d="M 468.5,740.5 C 469.613,741.946 469.78,743.613 469,745.5C 468.506,743.866 468.34,742.199 468.5,740.5 Z"/></g>
<g><path style="opacity:0.004" fill="#0a0c09" d="M 344.5,741.5 C 343.833,742.167 343.833,742.167 344.5,741.5 Z"/></g>
<g><path style="opacity:0.004" fill="#0b0d0d" d="M 70.5,742.5 C 71.8333,743.167 71.8333,743.167 70.5,742.5 Z"/></g>
<g><path style="opacity:0.004" fill="#111311" d="M 202.5,742.5 C 203.833,743.167 203.833,743.167 202.5,742.5 Z"/></g>
<g><path style="opacity:0.012" fill="#0a0806" d="M 393.5,742.5 C 394.833,743.167 394.833,743.167 393.5,742.5 Z"/></g>
<g><path style="opacity:0.004" fill="#0d0e09" d="M 459.5,742.5 C 460.833,743.167 460.833,743.167 459.5,742.5 Z"/></g>
<g><path style="opacity:0.012" fill="#10110f" d="M 550.5,742.5 C 551.833,743.167 551.833,743.167 550.5,742.5 Z"/></g>
<g><path style="opacity:0.014" fill="#0b0908" d="M 393.5,744.5 C 394.525,744.897 394.692,745.563 394,746.5C 393.536,745.906 393.369,745.239 393.5,744.5 Z"/></g>
<g><path style="opacity:0.012" fill="#080a07" d="M 288.5,745.5 C 289.833,746.167 289.833,746.167 288.5,745.5 Z"/></g>
<g><path style="opacity:0.004" fill="#0b0c0b" d="M 310.5,745.5 C 311.833,746.167 311.833,746.167 310.5,745.5 Z"/></g>
<g><path style="opacity:0.004" fill="#111311" d="M 550.5,745.5 C 551.833,746.167 551.833,746.167 550.5,745.5 Z"/></g>
<g><path style="opacity:0.004" fill="#0d100d" d="M 602.5,745.5 C 603.833,746.167 603.833,746.167 602.5,745.5 Z"/></g>
<g><path style="opacity:0.004" fill="#2a2a28" d="M 634.5,745.5 C 635.833,746.167 635.833,746.167 634.5,745.5 Z"/></g>
<g><path style="opacity:0.008" fill="#0e0e0c" d="M 412.5,746.5 C 413.833,747.167 413.833,747.167 412.5,746.5 Z"/></g>
<g><path style="opacity:0.004" fill="#101011" d="M 607.5,746.5 C 608.833,747.167 608.833,747.167 607.5,746.5 Z"/></g>
<g><path style="opacity:0.006" fill="#151313" d="M 202.5,744.5 C 203.613,745.946 203.78,747.613 203,749.5C 202.506,747.866 202.34,746.199 202.5,744.5 Z"/></g>
<g><path style="opacity:0.004" fill="#0f0f0f" d="M 487.5,747.5 C 488.833,748.167 488.833,748.167 487.5,747.5 Z"/></g>
<g><path style="opacity:0.031" fill="#0c0a09" d="M 365.5,748.5 C 365.103,749.525 364.437,749.692 363.5,749C 364.094,748.536 364.761,748.369 365.5,748.5 Z"/></g>
<g><path style="opacity:0.01" fill="#0b0a09" d="M 393.5,748.5 C 394.525,748.897 394.692,749.563 394,750.5C 393.536,749.906 393.369,749.239 393.5,748.5 Z"/></g>
<g><path style="opacity:0.008" fill="#0c0e0c" d="M 459.5,748.5 C 460.833,749.167 460.833,749.167 459.5,748.5 Z"/></g>
<g><path style="opacity:0.016" fill="#0f0d0d" d="M 468.5,746.5 C 469.622,748.288 469.789,750.288 469,752.5C 468.505,750.527 468.338,748.527 468.5,746.5 Z"/></g>
<g><path style="opacity:0.012" fill="#12100f" d="M 613.5,748.5 C 613.103,749.525 612.437,749.692 611.5,749C 612.094,748.536 612.761,748.369 613.5,748.5 Z"/></g>
<g><path style="opacity:0.008" fill="#0f0e0e" d="M 98.5,750.5 C 99.525,750.897 99.6917,751.563 99,752.5C 98.5357,751.906 98.369,751.239 98.5,750.5 Z"/></g>
<g><path style="opacity:0.008" fill="#0c0d0b" d="M 339.5,750.5 C 340.833,751.167 340.833,751.167 339.5,750.5 Z"/></g>
<g><path style="opacity:0.004" fill="#131513" d="M 550.5,750.5 C 551.833,751.167 551.833,751.167 550.5,750.5 Z"/></g>
<g><path style="opacity:0.012" fill="#100e0f" d="M 487.5,751.5 C 488.833,752.167 488.833,752.167 487.5,751.5 Z"/></g>
<g><path style="opacity:0.01" fill="#161615" d="M 202.5,752.5 C 203.525,752.897 203.692,753.563 203,754.5C 202.536,753.906 202.369,753.239 202.5,752.5 Z"/></g>
<g><path style="opacity:0.008" fill="#0c0b0b" d="M 394.5,753.5 C 395.833,754.167 395.833,754.167 394.5,753.5 Z"/></g>
<g><path style="opacity:0.008" fill="#151716" d="M 550.5,753.5 C 551.833,754.167 551.833,754.167 550.5,753.5 Z"/></g>
<g><path style="opacity:0.004" fill="#171915" d="M 60.5,754.5 C 59.8333,755.167 59.8333,755.167 60.5,754.5 Z"/></g>
<g><path style="opacity:0.008" fill="#100f0d" d="M 234.5,755.5 C 233.833,754.167 233.833,754.167 234.5,755.5 Z"/></g>
<g><path style="opacity:0.004" fill="#0e0f0b" d="M 234.5,755.5 C 234.833,755.5 235.167,755.5 235.5,755.5C 235.315,756.17 234.981,756.17 234.5,755.5 Z"/></g>
<g><path style="opacity:0.012" fill="#0f100f" d="M 415.5,755.5 C 416.833,756.167 416.833,756.167 415.5,755.5 Z"/></g>
<g><path style="opacity:0.004" fill="#171818" d="M 550.5,755.5 C 551.833,756.167 551.833,756.167 550.5,755.5 Z"/></g>
<g><path style="opacity:0.008" fill="#171818" d="M 202.5,756.5 C 203.833,757.167 203.833,757.167 202.5,756.5 Z"/></g>
<g><path style="opacity:0.004" fill="#111111" d="M 254.5,756.5 C 255.833,757.167 255.833,757.167 254.5,756.5 Z"/></g>
<g><path style="opacity:0.004" fill="#151616" d="M 615.5,757.5 C 614.833,756.167 614.833,756.167 615.5,757.5 Z"/></g>
<g><path style="opacity:0.004" fill="#1a1b1c" d="M 202.5,758.5 C 203.833,759.167 203.833,759.167 202.5,758.5 Z"/></g>
<g><path style="opacity:0.004" fill="#0f130e" d="M 419.5,758.5 C 420.833,759.167 420.833,759.167 419.5,758.5 Z"/></g>
<g><path style="opacity:0.012" fill="#111211" d="M 468.5,755.5 C 469.613,756.946 469.78,758.613 469,760.5C 468.506,758.866 468.34,757.199 468.5,755.5 Z"/></g>
<g><path style="opacity:0.004" fill="#181b1b" d="M 550.5,758.5 C 551.833,759.167 551.833,759.167 550.5,758.5 Z"/></g>
<g><path style="opacity:0.008" fill="#111412" d="M 597.5,758.5 C 598.833,759.167 598.833,759.167 597.5,758.5 Z"/></g>
<g><path style="opacity:0.006" fill="#0d0d0d" d="M 288.5,760.5 C 289.946,759.387 291.613,759.22 293.5,760C 291.866,760.494 290.199,760.66 288.5,760.5 Z"/></g>
<g><path style="opacity:0.004" fill="#0e100e" d="M 297.5,759.5 C 298.833,760.167 298.833,760.167 297.5,759.5 Z"/></g>
<g><path style="opacity:0.016" fill="#0e0e0d" d="M 299.5,759.5 C 300.833,760.167 300.833,760.167 299.5,759.5 Z"/></g>
<g><path style="opacity:0.008" fill="#0f0f0e" d="M 301.5,759.5 C 302.833,760.167 302.833,760.167 301.5,759.5 Z"/></g>
<g><path style="opacity:0.007" fill="#0f1010" d="M 305.5,760.5 C 306.251,759.427 307.251,759.26 308.5,760C 307.552,760.483 306.552,760.649 305.5,760.5 Z"/></g>
<g><path style="opacity:0.012" fill="#0f0f0f" d="M 311.5,759.5 C 312.833,760.167 312.833,760.167 311.5,759.5 Z"/></g>
<g><path style="opacity:0.004" fill="#0d100f" d="M 313.5,759.5 C 314.833,760.167 314.833,760.167 313.5,759.5 Z"/></g>
<g><path style="opacity:0.004" fill="#0e100e" d="M 361.5,760.5 C 361.897,759.475 362.563,759.308 363.5,760C 362.906,760.464 362.239,760.631 361.5,760.5 Z"/></g>
<g><path style="opacity:0.009" fill="#141413" d="M 487.5,755.5 C 488.434,756.568 488.768,757.901 488.5,759.5C 491.187,759.336 493.854,759.503 496.5,760C 493.518,760.498 490.518,760.665 487.5,760.5C 487.5,758.833 487.5,757.167 487.5,755.5 Z"/></g>
<g><path style="opacity:0.004" fill="#161715" d="M 497.5,759.5 C 498.833,760.167 498.833,760.167 497.5,759.5 Z"/></g>
<g><path style="opacity:0.008" fill="#171716" d="M 499.5,760.5 C 500.946,759.387 502.613,759.22 504.5,760C 502.866,760.494 501.199,760.66 499.5,760.5 Z"/></g>
<g><path style="opacity:0.012" fill="#171616" d="M 505.5,760.5 C 506.946,759.387 508.613,759.22 510.5,760C 508.866,760.494 507.199,760.66 505.5,760.5 Z"/></g>
<g><path style="opacity:0.014" fill="#161716" d="M 513.5,760.5 C 514.251,759.427 515.251,759.26 516.5,760C 515.552,760.483 514.552,760.649 513.5,760.5 Z"/></g>
<g><path style="opacity:0.008" fill="#131414" d="M 600.5,759.5 C 601.833,760.167 601.833,760.167 600.5,759.5 Z"/></g>
<g><path style="opacity:0.007" fill="#161717" d="M 612.5,760.5 C 611.448,760.649 610.448,760.483 609.5,760C 610.749,759.26 611.749,759.427 612.5,760.5 Z"/></g>
<g><path style="opacity:0.004" fill="#1d1b1a" d="M 202.5,760.5 C 203.833,761.167 203.833,761.167 202.5,760.5 Z"/></g>
<g><path style="opacity:0.008" fill="#111211" d="M 358.5,760.5 C 359.833,761.167 359.833,761.167 358.5,760.5 Z"/></g>
<g><path style="opacity:0.004" fill="#1c1d1b" d="M 550.5,760.5 C 551.525,760.897 551.692,761.563 551,762.5C 550.536,761.906 550.369,761.239 550.5,760.5 Z"/></g>
<g><path style="opacity:0.008" fill="#171816" d="M 603.5,760.5 C 604.833,761.167 604.833,761.167 603.5,760.5 Z"/></g>
<g><path style="opacity:0.004" fill="#181918" d="M 605.5,761.5 C 605.897,760.475 606.563,760.308 607.5,761C 606.906,761.464 606.239,761.631 605.5,761.5 Z"/></g>
<g><path style="opacity:0.004" fill="#1e1d1c" d="M 578.5,762.5 C 577.833,763.167 577.833,763.167 578.5,762.5 Z"/></g>
<g><path style="opacity:0.008" fill="#121514" d="M 320.5,763.5 C 321.833,764.167 321.833,764.167 320.5,763.5 Z"/></g>
<g><path style="opacity:0.004" fill="#171716" d="M 468.5,763.5 C 469.573,764.251 469.74,765.251 469,766.5C 468.517,765.552 468.351,764.552 468.5,763.5 Z"/></g>
<g><path style="opacity:0.004" fill="#1b1f1c" d="M 67.5,764.5 C 66.8333,765.167 66.8333,765.167 67.5,764.5 Z"/></g>
<g><path style="opacity:0.004" fill="#1f221f" d="M 550.5,765.5 C 551.833,766.167 551.833,766.167 550.5,765.5 Z"/></g>
<g><path style="opacity:0.012" fill="#20211f" d="M 159.5,766.5 C 160.833,767.167 160.833,767.167 159.5,766.5 Z"/></g>
<g><path style="opacity:0.008" fill="#1c1c19" d="M 468.5,767.5 C 469.833,768.167 469.833,768.167 468.5,767.5 Z"/></g>
<g><path style="opacity:0.008" fill="#1e201c" d="M 378.5,770.5 C 379.833,771.167 379.833,771.167 378.5,770.5 Z"/></g>
<g><path style="opacity:0.004" fill="#1d201d" d="M 447.5,770.5 C 448.833,771.167 448.833,771.167 447.5,770.5 Z"/></g>
<g><path style="opacity:0.008" fill="#262524" d="M 550.5,769.5 C 551.525,769.897 551.692,770.563 551,771.5C 550.536,770.906 550.369,770.239 550.5,769.5 Z"/></g>
<g><path style="opacity:0.004" fill="#1f1f1f" d="M 115.5,771.5 C 115.5,771.833 115.5,772.167 115.5,772.5C 112.833,772.167 112.833,771.833 115.5,771.5 Z"/></g>
<g><path style="opacity:0.004" fill="#242222" d="M 153.5,771.5 C 154.833,772.167 154.833,772.167 153.5,771.5 Z"/></g>
<g><path style="opacity:0.004" fill="#252523" d="M 202.5,768.5 C 203.613,769.946 203.78,771.613 203,773.5C 202.506,771.866 202.34,770.199 202.5,768.5 Z"/></g>
<g><path style="opacity:0.004" fill="#202320" d="M 241.5,771.5 C 242.833,772.167 242.833,772.167 241.5,771.5 Z"/></g>
<g><path style="opacity:0.016" fill="#222020" d="M 115.5,772.5 C 116.833,773.167 116.833,773.167 115.5,772.5 Z"/></g>
<g><path style="opacity:0.012" fill="#1b1d1c" d="M 340.5,772.5 C 339.833,773.167 339.833,773.167 340.5,772.5 Z"/></g>
<g><path style="opacity:0.004" fill="#211f1f" d="M 531.5,772.5 C 532.833,773.167 532.833,773.167 531.5,772.5 Z"/></g>
<g><path style="opacity:0.012" fill="#2b2d2d" d="M 622.5,772.5 C 623.833,773.167 623.833,773.167 622.5,772.5 Z"/></g>
<g><path style="opacity:0.004" fill="#202320" d="M 343.5,774.5 C 344.833,775.167 344.833,775.167 343.5,774.5 Z"/></g>
<g><path style="opacity:0.008" fill="#232421" d="M 440.5,774.5 C 441.833,775.167 441.833,775.167 440.5,774.5 Z"/></g>
<g><path style="opacity:0.008" fill="#313332" d="M 35.5,775.5 C 36.8333,776.167 36.8333,776.167 35.5,775.5 Z"/></g>
<g><path style="opacity:0.008" fill="#282a27" d="M 81.5,775.5 C 82.8333,776.167 82.8333,776.167 81.5,775.5 Z"/></g>
<g><path style="opacity:0.008" fill="#292929" d="M 83.5,775.5 C 84.8333,776.167 84.8333,776.167 83.5,775.5 Z"/></g>
<g><path style="opacity:0.008" fill="#272828" d="M 212.5,775.5 C 213.833,776.167 213.833,776.167 212.5,775.5 Z"/></g>
<g><path style="opacity:0.008" fill="#2b2b28" d="M 217.5,775.5 C 218.833,776.167 218.833,776.167 217.5,775.5 Z"/></g>
<g><path style="opacity:0.004" fill="#272828" d="M 245.5,775.5 C 246.833,776.167 246.833,776.167 245.5,775.5 Z"/></g>
<g><path style="opacity:0.004" fill="#262726" d="M 252.5,775.5 C 253.833,776.167 253.833,776.167 252.5,775.5 Z"/></g>
<g><path style="opacity:0.004" fill="#222321" d="M 284.5,775.5 C 285.833,776.167 285.833,776.167 284.5,775.5 Z"/></g>
<g><path style="opacity:0.008" fill="#21221f" d="M 292.5,775.5 C 293.833,776.167 293.833,776.167 292.5,775.5 Z"/></g>
<g><path style="opacity:0.008" fill="#212321" d="M 294.5,775.5 C 295.833,776.167 295.833,776.167 294.5,775.5 Z"/></g>
<g><path style="opacity:0.004" fill="#242320" d="M 297.5,775.5 C 298.833,776.167 298.833,776.167 297.5,775.5 Z"/></g>
<g><path style="opacity:0.004" fill="#242522" d="M 305.5,775.5 C 306.833,776.167 306.833,776.167 305.5,775.5 Z"/></g>
<g><path style="opacity:0.004" fill="#232724" d="M 315.5,775.5 C 316.833,776.167 316.833,776.167 315.5,775.5 Z"/></g>
<g><path style="opacity:0.004" fill="#242524" d="M 476.5,775.5 C 477.833,776.167 477.833,776.167 476.5,775.5 Z"/></g>
<g><path style="opacity:0.004" fill="#252623" d="M 483.5,775.5 C 484.833,776.167 484.833,776.167 483.5,775.5 Z"/></g>
<g><path style="opacity:0.012" fill="#262425" d="M 491.5,776.5 C 491.897,775.475 492.563,775.308 493.5,776C 492.906,776.464 492.239,776.631 491.5,776.5 Z"/></g>
<g><path style="opacity:0.008" fill="#242525" d="M 501.5,775.5 C 502.833,776.167 502.833,776.167 501.5,775.5 Z"/></g>
<g><path style="opacity:0.008" fill="#282727" d="M 536.5,775.5 C 537.833,776.167 537.833,776.167 536.5,775.5 Z"/></g>
<g><path style="opacity:0.008" fill="#282b28" d="M 540.5,775.5 C 541.833,776.167 541.833,776.167 540.5,775.5 Z"/></g>
<g><path style="opacity:0.008" fill="#222222" d="M 129.5,776.5 C 130.833,777.167 130.833,777.167 129.5,776.5 Z"/></g>
<g><path style="opacity:0.006" fill="#242222" d="M 134.5,777.5 C 134.897,776.475 135.563,776.308 136.5,777C 135.906,777.464 135.239,777.631 134.5,777.5 Z"/></g>
<g><path style="opacity:0.01" fill="#222120" d="M 350.5,777.5 C 350.897,776.475 351.563,776.308 352.5,777C 351.906,777.464 351.239,777.631 350.5,777.5 Z"/></g>
<g><path style="opacity:0.004" fill="#22231f" d="M 356.5,776.5 C 357.833,777.167 357.833,777.167 356.5,776.5 Z"/></g>
<g><path style="opacity:0.008" fill="#252422" d="M 363.5,777.5 C 363.897,776.475 364.563,776.308 365.5,777C 364.906,777.464 364.239,777.631 363.5,777.5 Z"/></g>
<g><path style="opacity:0.012" fill="#232421" d="M 420.5,776.5 C 421.833,777.167 421.833,777.167 420.5,776.5 Z"/></g>
<g><path style="opacity:0.008" fill="#2a2928" d="M 599.5,776.5 C 600.833,777.167 600.833,777.167 599.5,776.5 Z"/></g>
<g><path style="opacity:0.004" fill="#282b2a" d="M 608.5,776.5 C 609.833,777.167 609.833,777.167 608.5,776.5 Z"/></g>
</svg>
